PathFileType	4	(X/Y/Z)	Beam_150-250.trc
DataRate	CameraRate	NumFrames	NumMarkers	Units	OrigDataRate	OrigDataStartFrame	OrigNumFrames
60	60	4	21	m	60	0	99
Frame#	Time	RHip			RKnee			RAnkle			RBigToe			RSmallToe			RHeel			LHip			LKnee			LAnkle			LBigToe			LSmallToe			LHeel			Neck			Head			Nose			RShoulder			RElbow			RWrist			LShoulder			LElbow			LWrist		
		X1	Y1	Z1	X2	Y2	Z2	X3	Y3	Z3	X4	Y4	Z4	X5	Y5	Z5	X6	Y6	Z6	X7	Y7	Z7	X8	Y8	Z8	X9	Y9	Z9	X10	Y10	Z10	X11	Y11	Z11	X12	Y12	Z12	X13	Y13	Z13	X14	Y14	Z14	X15	Y15	Z15	X16	Y16	Z16	X17	Y17	Z17	X18	Y18	Z18	X19	Y19	Z19	X20	Y20	Z20	X21	Y21	Z21	
0	2.5166666666666666	-0.06499776880731617	0.9015132201416923	-1.400573592601661	-0.03953823544185504	0.49286701956759515	-1.448839828511971	0.043722239677169414	0.1439210260047625	-1.595023247683773	-0.016930358013221066	0.0644327163169226	-1.44658179279705	-0.02365940688245085	0.07649613531234074	-1.5049556708516119	0.05998555151669309	0.10449043759287684	-1.6357123947955186	0.104129251853791	0.9087452234460837	-1.4589563098305751	0.030460644373404445	0.5362746404904438	-1.263460411573419	0.013825475610292954	0.18117305106433984	-1.1375271880026119	-0.022230130872956267	0.09538301202308717	-1.0124216532378532	0.002585112527234221	0.11342035499023516	-0.9900955931254389	0.023243410985676786	0.10281046967816748	-1.2269404066275151	-0.02869111716296768	1.464046774257466	-1.3966877075073403	-0.05637421589160306	1.702420063832296	-1.2516128899060588	-0.053039310359251385	1.5572384516777782	-1.1970436207520252	-0.16744208664829818	1.3929475880159552	-1.4130332081978954	-0.2729544608345024	1.1455669190225903	-1.4797215568705666	-0.36307806534796105	0.9229656892080695	-1.3696481415009008	0.14493460846256684	1.4142103983448593	-1.4453320504539149	0.2770465551178219	1.1648130235864789	-1.472503961456953	0.35463254276602424	0.9377377304713096	-1.4579500717625875
1	2.533333333333333	-0.07104221539355574	0.9043857718248938	-1.3935290026984135	-0.038805900576076725	0.4935005444036273	-1.446546013508269	0.04217122697865226	0.1456514778923754	-1.5952702035359647	-0.017262385969641143	0.06489677662461481	-1.4471475723743108	-0.02345028755342265	0.07552904378809044	-1.503324160367069	0.059097546234150075	0.10738317958349936	-1.6363855978384911	0.1007172369032631	0.908286735387316	-1.4465696738127223	0.0376827144442631	0.5291465823978581	-1.2425930838408046	0.011219622298439303	0.17260176045855463	-1.149628403484078	-0.02350694902549525	0.09085042852305689	-1.0128543960363166	-0.0017343510873579183	0.09846739691202089	-1.0095156760413928	0.019979298828112623	0.10451892856857599	-1.2176358062443415	-0.023391910591897727	1.46386191847052	-1.3856850474961637	-0.04391542555292749	1.702654872932106	-1.251214540499296	-0.03740144300306092	1.556111109962116	-1.1993429627695773	-0.16398493590089275	1.3941321603107169	-1.4213321802361225	-0.27591600807304084	1.1487930488475555	-1.4801962058938747	-0.3657281633285031	0.935937760891541	-1.3600641652438596	0.14974467918964834	1.4100972780266499	-1.4377593851411454	0.28124197957328184	1.1600814529845629	-1.4560701338965316	0.359446366572455	0.9320159286709557	-1.4383584093558017
2	2.55	-0.07645198561087388	0.9069940575482696	-1.3860215927221433	-0.0382274392287417	0.49409662221309203	-1.4441913244044564	0.04056369624500235	0.1473499267457259	-1.5955052910731284	-0.0178672448638713	0.06548552267980028	-1.44703314184211	-0.023569211114986607	0.07515743354397662	-1.5020826083165242	0.058118048710815474	0.11063680953086469	-1.6371707607470438	0.09720199175920055	0.9080798844258192	-1.4346185098781312	0.044902962037864105	0.5227327874168537	-1.2224064807806703	0.008571391007692712	0.16532945071881106	-1.1604310273260345	-0.02531132479069224	0.08630322930003033	-1.013103118199981	-0.0062384212967522105	0.08592374531436042	-1.0256116295051168	0.016708852486406873	0.10632323927943667	-1.209276544833911	-0.01767428452819062	1.4637634851026229	-1.3748427241451047	-0.031439457883046716	1.7028880007733869	-1.2490642166058648	-0.023098581813561118	1.5552175702276103	-1.200272509937957	-0.160034032937889	1.3961490903770337	-1.4255817971801805	-0.27883793278827684	1.1531479796380455	-1.4784308333066005	-0.3690457678302268	0.9489834612139572	-1.3489596196531608	0.15414429522636128	1.4069074383212905	-1.4308213593572146	0.2851207810674114	1.1550622245573516	-1.4402949572916386	0.36357677312511855	0.9264522765272555	-1.419229549776949
3	2.566666666666667	-0.08094892532689305	0.909186112452174	-1.377468194814902	-0.03816016569880871	0.49484526715615385	-1.4412347796861835	0.03879492924989353	0.14901982475943593	-1.5955454652361534	-0.018881909828377598	0.06633042749208083	-1.4458379719028593	-0.024144237348150046	0.07564123177700721	-1.501186851768394	0.057068706303717284	0.11435847101940715	-1.6381125543681598	0.09349261870507801	0.9080862478436117	-1.4231340468339018	0.051277140359254854	0.5176337434335624	-1.20395779957866	0.005918700949584425	0.1599198106146865	-1.169203969021379	-0.027231072425253956	0.08212569818761951	-1.012894306401291	-0.010404052359623342	0.07722823888358307	-1.0365069303177343	0.013495919915579092	0.10816672049824629	-1.2022530830656486	-0.011191919722603179	1.4638138281852064	-1.3641796776284822	-0.018760524266627443	1.70309332480987	-1.2437223159825268	-0.010758345291826895	1.554853087501426	-1.1980173904182603	-0.15506064269938147	1.3995831233356524	-1.4223134646599118	-0.28138363213027884	1.1596958040057757	-1.4723493709012092	-0.37358057986536913	0.9625872373799473	-1.3353134211805002	0.1580820088451113	1.4050796793839488	-1.4246362488664237	0.2883791816150261	1.1496954209767236	-1.4259619080567103	0.3664280981626594	0.9211729638784381	-1.4010367753824369
